<mxfile host="65bd71144e">
    <diagram id="1uyIFCrYjEnZss3KLxLL" name="ページ1">
        <mxGraphModel dx="666" dy="723" grid="1" gridSize="10" guides="1" tooltips="1" connect="1" arrows="1" fold="1" page="1" pageScale="1" pageWidth="827" pageHeight="1169" math="0" shadow="0">
            <root>
                <mxCell id="0"/>
                <mxCell id="1" parent="0"/>
                <mxCell id="2" value="問い合わせ送信システム" style="swimlane;startSize=0;verticalAlign=top;" vertex="1" parent="1">
                    <mxGeometry x="200" y="60" width="600" height="280" as="geometry"/>
                </mxCell>
                <mxCell id="4" value="問い合わせ内容の記入" style="ellipse;whiteSpace=wrap;html=1;align=center;" vertex="1" parent="2">
                    <mxGeometry x="145" y="60" width="310" height="50" as="geometry"/>
                </mxCell>
                <mxCell id="5" value="問い合わせ内容の送信" style="ellipse;whiteSpace=wrap;html=1;align=center;" vertex="1" parent="2">
                    <mxGeometry x="145" y="120" width="310" height="50" as="geometry"/>
                </mxCell>
                <mxCell id="6" value="問い合わせ内容の確認" style="ellipse;whiteSpace=wrap;html=1;align=center;" vertex="1" parent="2">
                    <mxGeometry x="145" y="180" width="310" height="50" as="geometry"/>
                </mxCell>
                <mxCell id="9" value="" style="endArrow=classic;html=1;entryX=0;entryY=0.5;entryDx=0;entryDy=0;" edge="1" parent="2" target="6">
                    <mxGeometry width="50" height="50" relative="1" as="geometry">
                        <mxPoint x="-30" y="155" as="sourcePoint"/>
                        <mxPoint x="145" y="110" as="targetPoint"/>
                    </mxGeometry>
                </mxCell>
                <mxCell id="3" value="購入者" style="shape=umlActor;verticalLabelPosition=bottom;verticalAlign=top;html=1;outlineConnect=0;" vertex="1" parent="1">
                    <mxGeometry x="40" y="110" width="100" height="190" as="geometry"/>
                </mxCell>
                <mxCell id="7" value="" style="endArrow=classic;html=1;entryX=0;entryY=0.5;entryDx=0;entryDy=0;" edge="1" parent="1" target="4">
                    <mxGeometry width="50" height="50" relative="1" as="geometry">
                        <mxPoint x="170" y="190" as="sourcePoint"/>
                        <mxPoint x="220" y="140" as="targetPoint"/>
                    </mxGeometry>
                </mxCell>
                <mxCell id="8" value="" style="endArrow=classic;html=1;entryX=0;entryY=0.5;entryDx=0;entryDy=0;" edge="1" parent="1" target="5">
                    <mxGeometry width="50" height="50" relative="1" as="geometry">
                        <mxPoint x="170" y="200" as="sourcePoint"/>
                        <mxPoint x="355" y="155" as="targetPoint"/>
                    </mxGeometry>
                </mxCell>
                <mxCell id="10" value="管理者" style="shape=umlActor;verticalLabelPosition=bottom;verticalAlign=top;html=1;outlineConnect=0;" vertex="1" parent="1">
                    <mxGeometry x="40" y="840" width="95" height="180" as="geometry"/>
                </mxCell>
                <mxCell id="12" value="問い合わせ管理システム" style="swimlane;startSize=0;verticalAlign=top;" vertex="1" parent="1">
                    <mxGeometry x="210" y="560" width="600" height="480" as="geometry"/>
                </mxCell>
                <mxCell id="13" value="管理システムにログイン" style="ellipse;whiteSpace=wrap;html=1;align=center;" vertex="1" parent="12">
                    <mxGeometry x="140" y="60" width="310" height="50" as="geometry"/>
                </mxCell>
                <mxCell id="14" value="管理システムからログアウト" style="ellipse;whiteSpace=wrap;html=1;align=center;" vertex="1" parent="12">
                    <mxGeometry x="145" y="180" width="310" height="50" as="geometry"/>
                </mxCell>
                <mxCell id="15" value="お問い合わせ内容を検索" style="ellipse;whiteSpace=wrap;html=1;align=center;" vertex="1" parent="12">
                    <mxGeometry x="145" y="240" width="310" height="50" as="geometry"/>
                </mxCell>
                <mxCell id="17" value="お問い合わせ内容を削除" style="ellipse;whiteSpace=wrap;html=1;align=center;" vertex="1" parent="12">
                    <mxGeometry x="145" y="300" width="310" height="50" as="geometry"/>
                </mxCell>
                <mxCell id="18" value="お問い合わせ内容の詳細表示" style="ellipse;whiteSpace=wrap;html=1;align=center;" vertex="1" parent="12">
                    <mxGeometry x="145" y="360" width="310" height="50" as="geometry"/>
                </mxCell>
                <mxCell id="19" value="お問い合わせ内容をcsv形式で取り出す" style="ellipse;whiteSpace=wrap;html=1;align=center;" vertex="1" parent="12">
                    <mxGeometry x="145" y="420" width="310" height="50" as="geometry"/>
                </mxCell>
                <mxCell id="28" value="新規ユーザーの作成・登録" style="ellipse;whiteSpace=wrap;html=1;align=center;" vertex="1" parent="12">
                    <mxGeometry x="145" y="120" width="310" height="50" as="geometry"/>
                </mxCell>
                <mxCell id="21" value="" style="endArrow=classic;html=1;entryX=0;entryY=0.5;entryDx=0;entryDy=0;" edge="1" parent="1" target="19">
                    <mxGeometry width="50" height="50" relative="1" as="geometry">
                        <mxPoint x="160" y="980" as="sourcePoint"/>
                        <mxPoint x="210" y="590" as="targetPoint"/>
                    </mxGeometry>
                </mxCell>
                <mxCell id="23" value="" style="endArrow=classic;html=1;entryX=0;entryY=0.5;entryDx=0;entryDy=0;" edge="1" parent="1" target="18">
                    <mxGeometry width="50" height="50" relative="1" as="geometry">
                        <mxPoint x="160" y="960" as="sourcePoint"/>
                        <mxPoint x="210" y="580" as="targetPoint"/>
                    </mxGeometry>
                </mxCell>
                <mxCell id="24" value="" style="endArrow=classic;html=1;entryX=0;entryY=0.5;entryDx=0;entryDy=0;" edge="1" parent="1" target="17">
                    <mxGeometry width="50" height="50" relative="1" as="geometry">
                        <mxPoint x="160" y="950" as="sourcePoint"/>
                        <mxPoint x="210" y="570" as="targetPoint"/>
                    </mxGeometry>
                </mxCell>
                <mxCell id="25" value="" style="endArrow=classic;html=1;entryX=0;entryY=0.5;entryDx=0;entryDy=0;" edge="1" parent="1" target="15">
                    <mxGeometry width="50" height="50" relative="1" as="geometry">
                        <mxPoint x="160" y="930" as="sourcePoint"/>
                        <mxPoint x="210" y="560" as="targetPoint"/>
                    </mxGeometry>
                </mxCell>
                <mxCell id="26" value="" style="endArrow=classic;html=1;entryX=0;entryY=0.5;entryDx=0;entryDy=0;" edge="1" parent="1" target="14">
                    <mxGeometry width="50" height="50" relative="1" as="geometry">
                        <mxPoint x="160" y="910" as="sourcePoint"/>
                        <mxPoint x="210" y="550" as="targetPoint"/>
                    </mxGeometry>
                </mxCell>
                <mxCell id="27" value="" style="endArrow=classic;html=1;entryX=0;entryY=0.5;entryDx=0;entryDy=0;" edge="1" parent="1" target="13">
                    <mxGeometry width="50" height="50" relative="1" as="geometry">
                        <mxPoint x="160" y="850" as="sourcePoint"/>
                        <mxPoint x="210" y="540" as="targetPoint"/>
                    </mxGeometry>
                </mxCell>
                <mxCell id="29" value="" style="endArrow=classic;html=1;entryX=0;entryY=0.5;entryDx=0;entryDy=0;" edge="1" parent="1" target="28">
                    <mxGeometry width="50" height="50" relative="1" as="geometry">
                        <mxPoint x="160" y="880" as="sourcePoint"/>
                        <mxPoint x="210" y="530" as="targetPoint"/>
                    </mxGeometry>
                </mxCell>
                <mxCell id="30" value="新規管理者" style="shape=umlActor;verticalLabelPosition=bottom;verticalAlign=top;html=1;outlineConnect=0;" vertex="1" parent="1">
                    <mxGeometry x="55" y="550" width="70" height="150" as="geometry"/>
                </mxCell>
                <mxCell id="31" value="" style="endArrow=classic;html=1;" edge="1" parent="1">
                    <mxGeometry width="50" height="50" relative="1" as="geometry">
                        <mxPoint x="86.94" y="740" as="sourcePoint"/>
                        <mxPoint x="86.94" y="815" as="targetPoint"/>
                    </mxGeometry>
                </mxCell>
            </root>
        </mxGraphModel>
    </diagram>
</mxfile>